<svg width="140" height="140" viewBox="0 0 140 140" fill="none" xmlns="http://www.w3.org/2000/svg">
<path d="M89.1042 10.0711C85.1989 13.9763 85.1989 20.308 89.1042 24.2132C93.0094 28.1184 99.3411 28.1184 103.246 24.2132C107.152 20.308 107.152 13.9763 103.246 10.0711C99.3411 6.16582 93.0094 6.16582 89.1042 10.0711Z" fill="#1C1B20"/>
<path d="M71.4264 27.7487C67.5212 31.654 67.5212 37.9856 71.4264 41.8909C75.3317 45.7961 81.6633 45.7961 85.5686 41.8909C89.4738 37.9856 89.4738 31.654 85.5686 27.7487C81.6633 23.8435 75.3317 23.8435 71.4264 27.7487Z" fill="#1C1B20"/>
<path d="M53.7487 45.4264C49.8435 49.3317 49.8435 55.6633 53.7487 59.5685C57.654 63.4738 63.9856 63.4738 67.8908 59.5685C71.7961 55.6633 71.7961 49.3317 67.8908 45.4264C63.9856 41.5212 57.654 41.5212 53.7487 45.4264Z" fill="#1C1B20"/>
<path d="M36.071 63.1041C32.1657 67.0093 32.1657 73.341 36.071 77.2462C39.9762 81.1515 46.3079 81.1515 50.2131 77.2462C54.1184 73.341 54.1184 67.0093 50.2131 63.1041C46.3079 59.1988 39.9762 59.1988 36.071 63.1041Z" fill="#1C1B20"/>
<path d="M53.7487 80.7818C49.8435 84.687 49.8435 91.0187 53.7487 94.9239C57.654 98.8291 63.9856 98.8291 67.8908 94.9239C71.7961 91.0187 71.7961 84.687 67.8908 80.7818C63.9856 76.8765 57.654 76.8765 53.7487 80.7818Z" fill="#1C1B20"/>
<path d="M71.4264 98.4594C67.5212 102.365 67.5212 108.696 71.4264 112.602C75.3317 116.507 81.6633 116.507 85.5686 112.602C89.4738 108.696 89.4738 102.365 85.5686 98.4594C81.6633 94.5542 75.3317 94.5542 71.4264 98.4594Z" fill="#1C1B20"/>
<path d="M89.1042 116.137C85.1989 120.042 85.1989 126.374 89.1042 130.279C93.0094 134.184 99.3411 134.184 103.246 130.279C107.152 126.374 107.152 120.042 103.246 116.137C99.3411 112.232 93.0094 112.232 89.1042 116.137Z" fill="#1C1B20"/>
</svg>
