<svg width="140" height="140" viewBox="0 0 140 140" fill="none" xmlns="http://www.w3.org/2000/svg">
<path fill-rule="evenodd" clip-rule="evenodd" d="M86.4742 83.4038C89.456 79.7501 91.2443 75.0839 91.2443 70C91.2443 59.0403 82.9335 50.0217 72.2703 48.9026C72.3475 49.6388 72.3872 50.3862 72.3872 51.1428C72.3872 56.2267 70.5989 60.8929 67.617 64.5467L86.4742 83.4038ZM59.562 70.6338C56.989 71.7428 54.1527 72.3571 51.1729 72.3571C50.4162 72.3571 49.6688 72.3175 48.9326 72.2403C50.0518 82.9035 59.0704 91.2143 70.03 91.2143C73.0098 91.2143 75.8461 90.5999 78.4192 89.491L59.562 70.6338Z" fill="#B9B8C0"/>
<path fill-rule="evenodd" clip-rule="evenodd" d="M104.415 101.344C105.7 100.315 106.93 99.2525 108.106 98.1679C117.367 89.6429 123.562 79.4286 126.51 72.4161C127.163 70.8643 127.163 69.1357 126.51 67.5839C123.562 60.5714 117.367 50.3768 108.106 41.8321C98.7845 33.2286 85.9804 26 69.9901 26C57.7924 26 47.4487 30.2063 39.0908 36.0205L51.5271 48.4568C56.5012 44.2524 62.9483 41.7143 69.9901 41.7143C85.7231 41.7143 98.4876 54.3839 98.4876 70C98.4876 77.0653 95.8748 83.5274 91.5563 88.4859L104.415 101.344ZM95.9872 107.059L83.7187 94.7905C79.6462 97.0181 74.9667 98.2857 69.9901 98.2857C54.2571 98.2857 41.4926 85.6161 41.4926 70C41.4926 64.9852 42.8089 60.2742 45.1172 56.1891L31.2975 42.3693C22.3553 50.7831 16.3574 60.7181 13.4898 67.5839C12.8367 69.1357 12.8367 70.8643 13.4898 72.4161C16.4187 79.4286 22.613 89.6429 31.8747 98.1679C41.1957 106.771 53.9998 114 69.9901 114C79.9042 114 88.5934 111.221 95.9872 107.059Z" fill="#B9B8C0"/>
<rect x="118.263" y="115.334" width="132.474" height="10" rx="5" transform="rotate(-135 118.263 115.334)" fill="#EEEEEE"/>
</svg>
