<svg width="140" height="140" viewBox="0 0 140 140" fill="none" xmlns="http://www.w3.org/2000/svg">
<path fill-rule="evenodd" clip-rule="evenodd" d="M130 98V77C130 43.8629 103.137 17 70 17C36.8629 17 10 43.8629 10 77L10 98H30L30 77C30 54.9086 47.9086 37 70 37C92.0914 37 110 54.9086 110 77V98H130Z" fill="#B9B8C0"/>
<path d="M110 118C121.046 118 130 109.046 130 98C130 86.9543 121.046 78 110 78C98.9543 78 90 86.9543 90 98C90 109.046 98.9543 118 110 118Z" fill="#EEEEEE"/>
<path d="M30 118C41.0457 118 50 109.046 50 98C50 86.9543 41.0457 78 30 78C18.9543 78 10 86.9543 10 98C10 109.046 18.9543 118 30 118Z" fill="#EEEEEE"/>
</svg>
