<svg width="140" height="140" viewBox="0 0 140 140" fill="none" xmlns="http://www.w3.org/2000/svg">
<path fill-rule="evenodd" clip-rule="evenodd" d="M81.9617 86.3553L110.246 58.0711C114.151 54.1658 114.151 47.8342 110.246 43.9289C106.341 40.0237 100.009 40.0237 96.1038 43.9289L67.8196 72.2132C63.9143 76.1184 63.9143 82.4501 67.8196 86.3553C71.7248 90.2606 78.0564 90.2606 81.9617 86.3553ZM124.388 72.2132C136.104 60.4975 136.104 41.5025 124.388 29.7868C112.672 18.0711 93.6774 18.0711 81.9617 29.7868L53.6774 58.0711C41.9617 69.7868 41.9617 88.7817 53.6774 100.497C65.3931 112.213 84.3881 112.213 96.1038 100.497L124.388 72.2132Z" fill="#EEEEEE"/>
<path fill-rule="evenodd" clip-rule="evenodd" d="M81.9617 86.3553L110.246 58.0711C114.151 54.1658 114.151 47.8342 110.246 43.9289C106.341 40.0237 100.009 40.0237 96.1038 43.9289L67.8196 72.2132C63.9143 76.1184 63.9143 82.4501 67.8196 86.3553C71.7248 90.2606 78.0564 90.2606 81.9617 86.3553ZM124.388 72.2132C136.104 60.4975 136.104 41.5025 124.388 29.7868C112.672 18.0711 93.6774 18.0711 81.9617 29.7868L53.6774 58.0711C41.9617 69.7868 41.9617 88.7817 53.6774 100.497C65.3931 112.213 84.3881 112.213 96.1038 100.497L124.388 72.2132Z" fill="#B9B8C0"/>
<path fill-rule="evenodd" clip-rule="evenodd" d="M43.0711 96.9619L71.3553 68.6777C75.2606 64.7724 75.2606 58.4408 71.3553 54.5355C67.4501 50.6303 61.1185 50.6303 57.2132 54.5355L28.9289 82.8198C25.0237 86.725 25.0237 93.0567 28.9289 96.9619C32.8342 100.867 39.1658 100.867 43.0711 96.9619ZM85.4975 82.8198C97.2132 71.1041 97.2132 52.1091 85.4975 40.3934C73.7818 28.6777 54.7868 28.6777 43.0711 40.3934L14.7868 68.6777C3.07107 80.3934 3.07107 99.3883 14.7868 111.104C26.5025 122.82 45.4975 122.82 57.2132 111.104L85.4975 82.8198Z" fill="#EEEEEE"/>
<path fill-rule="evenodd" clip-rule="evenodd" d="M81.9617 86.3553L110.246 58.0711C114.151 54.1658 114.151 47.8342 110.246 43.9289C106.341 40.0237 100.009 40.0237 96.1038 43.9289L67.8196 72.2132C63.9143 76.1184 63.9143 82.4501 67.8196 86.3553C71.7248 90.2606 78.0564 90.2606 81.9617 86.3553ZM124.388 72.2132C136.104 60.4975 136.104 41.5025 124.388 29.7868C112.672 18.0711 93.6774 18.0711 81.9617 29.7868L53.6774 58.0711C41.9617 69.7868 41.9617 88.7817 53.6774 100.497C65.3931 112.213 84.3881 112.213 96.1038 100.497L124.388 72.2132Z" fill="#B9B8C0"/>
<path d="M43.7781 96.2549L69.941 70.0919L84.0831 84.234L57.9202 110.397L43.7781 96.2549Z" fill="#EEEEEE"/>
</svg>
