<svg width="140" height="140" viewBox="0 0 140 140" fill="none" xmlns="http://www.w3.org/2000/svg">
<path fill-rule="evenodd" clip-rule="evenodd" d="M110 47L110 64C110 86.0914 92.0914 104 70 104C47.9086 104 30 86.0914 30 64L30 47C30 24.9086 47.9086 7 70 7C92.0914 7 110 24.9086 110 47ZM90 47C90 35.9543 81.0457 27 70 27C58.9543 27 50 35.9543 50 47L50 64C50 75.0457 58.9543 84 70 84C81.0457 84 90 75.0457 90 64L90 47Z" fill="#B9B8C0"/>
<rect x="16" y="65" width="108" height="68" rx="10" fill="#EEEEEE"/>
</svg>
