<svg width="200" height="60" viewBox="0 0 200 60" xmlns="http://www.w3.org/2000/svg">
  <g fill="#1C1B20">
    <!-- C -->
    <path d="M35 15C45 15 53 23 53 33C53 43 45 51 35 51C25 51 17 43 17 33C17 28 19 24 22 21L28 27C26 29 25 31 25 33C25 38 29 42 35 42C41 42 45 38 45 33C45 28 41 24 35 24C32 24 30 25 28 27L22 21C25 17 29 15 35 15Z"/>
    <!-- v -->
    <path d="M60 24H68L75 40L82 24H90L80 51H70L60 24Z"/>
    <!-- e -->
    <path d="M95 24C105 24 112 31 112 40C112 41 112 42 112 43H103C103 46 106 48 110 48C113 48 115 47 117 45L121 49C118 51 114 52 110 52C100 52 93 45 93 38C93 31 100 24 110 24ZM110 28C106 28 103 30 103 34H117C117 30 114 28 110 28Z"/>
    <!-- n -->
    <path d="M125 24H133V28C135 25 138 24 142 24C150 24 155 29 155 37V51H147V39C147 34 145 32 141 32C137 32 135 34 135 39V51H125V24Z"/>
    <!-- t -->
    <path d="M165 18H173V24H180V32H173V42C173 45 174 46 177 46H180V51H175C169 51 165 48 165 42V32H160V24H165V18Z"/>
  </g>
</svg>
