<svg width="140" height="140" viewBox="0 0 140 140" fill="none" xmlns="http://www.w3.org/2000/svg">
<path d="M93.3815 56.8389C94.3377 55.5827 94.169 53.8015 92.9877 52.7515C91.8065 51.7015 90.0064 51.7578 88.8814 52.8827L55.3188 86.4443L52.8813 88.8817C52.3188 89.4442 52 90.2129 52 91.0004V112C52 114.475 53.5188 116.687 55.8063 117.587C58.0938 118.487 60.7188 117.887 62.4063 116.068L75.2501 102.194L64.0001 97.5064V95.0127L93.3815 56.8389Z" fill="#EEEEEE"/>
<path d="M115.397 23.051C117.291 24.3638 118.285 26.6331 117.928 28.9024L105.927 106.922C105.646 108.741 104.539 110.335 102.927 111.235C101.314 112.135 99.3823 112.248 97.6758 111.535L63.9966 97.5256V95.0312L93.3816 56.8468C94.3567 55.5903 94.1692 53.7711 92.9503 52.7396C91.7314 51.7081 89.9311 51.7831 88.8247 52.9459L55.5205 87.7544L52.8764 90.3989C52.3139 90.9615 51.9951 91.7304 51.9951 92.5181L46.6882 90.3051L25.6855 81.5467C23.5665 80.6652 22.1413 78.6772 22.01 76.3891C21.8788 74.1011 23.0414 71.9443 25.0292 70.8003L109.04 22.7884C111.046 21.6444 113.522 21.7569 115.416 23.051H115.397Z" fill="#B9B8C0"/>
</svg>
