<svg width="140" height="140" viewBox="0 0 140 140" fill="none" xmlns="http://www.w3.org/2000/svg">
<rect x="99" y="16" width="108" height="83" rx="10" transform="rotate(90 99 16)" fill="#B8B8C1"/>
<path d="M57.999 68C63.5219 68 67.999 63.5228 67.999 58C67.999 52.4772 63.5219 48 57.999 48C52.4762 48 47.999 52.4772 47.999 58C47.999 63.5228 52.4762 68 57.999 68Z" fill="#1C1B20"/>
<path fill-rule="evenodd" clip-rule="evenodd" d="M36 92.4H80C80 80.2497 70.1503 70.4 58 70.4C45.8497 70.4 36 80.2497 36 92.4Z" fill="#1C1B20"/>
<path d="M114 48C119.523 48 124 43.5228 124 38C124 32.4772 119.523 28 114 28C108.477 28 104 32.4772 104 38C104 43.5228 108.477 48 114 48Z" fill="#1C1B20"/>
<path d="M114 80C119.523 80 124 75.5228 124 70C124 64.4772 119.523 60 114 60C108.477 60 104 64.4772 104 70C104 75.5228 108.477 80 114 80Z" fill="#1C1B20"/>
<path d="M114 112C119.523 112 124 107.523 124 102C124 96.4772 119.523 92 114 92C108.477 92 104 96.4772 104 102C104 107.523 108.477 112 114 112Z" fill="#1C1B20"/>
</svg>
