<svg width="140" height="140" viewBox="0 0 140 140" fill="none" xmlns="http://www.w3.org/2000/svg">
<path d="M70 105C92.0914 105 110 87.0914 110 65C110 42.9086 92.0914 25 70 25C47.9086 25 30 42.9086 30 65C30 87.0914 47.9086 105 70 105Z" fill="#EEEEEE"/>
<rect width="74.3695" height="20" rx="10" transform="matrix(-0.5 0.866025 0.866025 0.5 67.1846 41)" fill="#EEEEEE"/>
<rect x="70.3203" y="41" width="74.3695" height="20" rx="10" transform="rotate(60 70.3203 41)" fill="#EEEEEE"/>
<path fill-rule="evenodd" clip-rule="evenodd" d="M94.023 22.3369L115.19 43.5037C115.439 43.2854 115.682 43.0574 115.92 42.8198C121.778 36.9619 121.778 27.4645 115.92 21.6066C110.062 15.7487 100.565 15.7487 94.7069 21.6066C94.4693 21.8442 94.2413 22.0878 94.023 22.3369Z" fill="#B9B8C0"/>
<path fill-rule="evenodd" clip-rule="evenodd" d="M46.5039 22.3369L25.3371 43.5037C25.088 43.2854 24.8444 43.0574 24.6068 42.8198C18.7489 36.9619 18.7489 27.4645 24.6068 21.6066C30.4646 15.7487 39.9621 15.7487 45.82 21.6066C46.0576 21.8442 46.2856 22.0878 46.5039 22.3369Z" fill="#B9B8C0"/>
<rect x="75" y="38" width="32" height="10" rx="5" transform="rotate(90 75 38)" fill="#B9B8C0"/>
<rect x="81.6606" y="81.7354" width="24.6984" height="10" rx="5" transform="rotate(-139.073 81.6606 81.7354)" fill="#B9B8C0"/>
</svg>
