<svg width="140" height="140" viewBox="0 0 140 140" fill="none" xmlns="http://www.w3.org/2000/svg">
<path d="M50.2132 130.279C54.1184 126.374 54.1184 120.042 50.2132 116.137C46.308 112.232 39.9763 112.232 36.0711 116.137C32.1658 120.042 32.1658 126.374 36.0711 130.279C39.9763 134.185 46.308 134.185 50.2132 130.279Z" fill="#EEEEEE"/>
<path d="M67.8909 112.602C71.7962 108.696 71.7962 102.365 67.8909 98.4594C63.9857 94.5542 57.654 94.5542 53.7488 98.4594C49.8436 102.365 49.8436 108.696 53.7488 112.602C57.654 116.507 63.9857 116.507 67.8909 112.602Z" fill="#EEEEEE"/>
<path d="M85.5687 94.9239C89.4739 91.0187 89.4739 84.687 85.5687 80.7818C81.6634 76.8765 75.3318 76.8765 71.4265 80.7818C67.5213 84.687 67.5213 91.0187 71.4265 94.9239C75.3318 98.8292 81.6634 98.8292 85.5687 94.9239Z" fill="#EEEEEE"/>
<path d="M103.246 77.2462C107.152 73.341 107.152 67.0093 103.246 63.1041C99.3412 59.1989 93.0095 59.1989 89.1043 63.1041C85.199 67.0093 85.199 73.341 89.1043 77.2462C93.0095 81.1515 99.3412 81.1515 103.246 77.2462Z" fill="#EEEEEE"/>
<path d="M85.5687 59.5686C89.4739 55.6633 89.4739 49.3317 85.5687 45.4264C81.6634 41.5212 75.3318 41.5212 71.4265 45.4264C67.5213 49.3317 67.5213 55.6633 71.4265 59.5686C75.3318 63.4738 81.6634 63.4738 85.5687 59.5686Z" fill="#EEEEEE"/>
<path d="M67.8909 41.8909C71.7962 37.9856 71.7962 31.654 67.8909 27.7488C63.9857 23.8435 57.654 23.8435 53.7488 27.7488C49.8436 31.654 49.8436 37.9856 53.7488 41.8909C57.654 45.7961 63.9857 45.7961 67.8909 41.8909Z" fill="#EEEEEE"/>
<path d="M50.2132 24.2132C54.1184 20.308 54.1184 13.9763 50.2132 10.0711C46.308 6.16584 39.9763 6.16584 36.0711 10.0711C32.1658 13.9763 32.1658 20.308 36.0711 24.2132C39.9763 28.1185 46.308 28.1185 50.2132 24.2132Z" fill="#EEEEEE"/>
</svg>
