<svg width="140" height="140" viewBox="0 0 140 140" fill="none" xmlns="http://www.w3.org/2000/svg">
<g clip-path="url(#clip0_54_498)">
<path d="M96.6512 24.582C97.9286 21.6387 96.976 18.2012 94.3561 16.3106C91.7362 14.4199 88.1637 14.5918 85.717 16.6973L30.2885 64.8223C28.1233 66.7129 27.3438 69.7422 28.3614 72.4063C29.3791 75.0703 31.9773 76.875 34.857 76.875H58.9987L42.3485 115.418C41.071 118.361 42.0237 121.799 44.6436 123.689C47.2635 125.58 50.836 125.408 53.2827 123.303L108.711 75.1777C110.876 73.2871 111.656 70.2578 110.638 67.5938C109.621 64.9297 107.044 63.1465 104.143 63.1465H80.001L96.6512 24.582Z" fill="#1C1B20"/>
</g>
<defs>
<clipPath id="clip0_54_498">
<rect width="97" height="110" fill="white" transform="translate(21 15)"/>
</clipPath>
</defs>
</svg>
