<svg width="140" height="140" viewBox="0 0 140 140" fill="none" xmlns="http://www.w3.org/2000/svg">
<path d="M26 38.75C26 28.3984 34.3504 20 44.6429 20H106.786C110.223 20 113 22.793 113 26.25V88.75C113 92.207 110.223 95 106.786 95H44.6429C41.2056 95 38.4286 97.793 38.4286 101.25C38.4286 104.707 41.2056 107.5 44.6429 107.5H106.786C110.223 107.5 113 110.293 113 113.75C113 117.207 110.223 120 106.786 120H44.6429C34.3504 120 26 111.602 26 101.25V38.75ZM53.9643 45C52.2554 45 50.8571 46.4062 50.8571 48.125C50.8571 49.8438 52.2554 51.25 53.9643 51.25H91.25C92.9589 51.25 94.3571 49.8438 94.3571 48.125C94.3571 46.4062 92.9589 45 91.25 45H53.9643ZM50.8571 60.625C50.8571 62.3438 52.2554 63.75 53.9643 63.75H91.25C92.9589 63.75 94.3571 62.3438 94.3571 60.625C94.3571 58.9062 92.9589 57.5 91.25 57.5H53.9643C52.2554 57.5 50.8571 58.9062 50.8571 60.625Z" fill="#1C1B20"/>
<path d="M38.4287 101.25C38.4287 97.793 41.2057 95 44.643 95H106.786V107.5H44.643C41.2057 107.5 38.4287 104.707 38.4287 101.25Z" fill="#B8B8C1"/>
</svg>
