<svg width="140" height="140" viewBox="0 0 140 140" fill="none" xmlns="http://www.w3.org/2000/svg">
<path d="M97.5 35.625H114.688C120.188 35.625 125 40.4375 125 45.9375V76.875H15V45.9375C15 40.4375 19.8125 35.625 25.3125 35.625H42.5V25.3125C42.5 19.8125 47.3125 15 52.8125 15H87.1875C92.6875 15 97.5 19.8125 97.5 25.3125V35.625ZM87.1875 35.625V27.0312C87.1875 26.0859 86.4141 25.3125 85.4688 25.3125H54.5312C53.5859 25.3125 52.8125 26.0859 52.8125 27.0312V35.625H87.1875Z" fill="#1C1B20"/>
<path d="M56.25 76.875H15V104.375C15 111.959 21.166 118.125 28.75 118.125H111.25C118.834 118.125 125 111.959 125 104.375V76.875H83.75V83.75C83.75 87.5527 80.6777 90.625 76.875 90.625H63.125C59.3223 90.625 56.25 87.5527 56.25 83.75V76.875Z" fill="#B8B8C1"/>
</svg>
