<svg width="140" height="140" viewBox="0 0 140 140" fill="none" xmlns="http://www.w3.org/2000/svg">
<path fill-rule="evenodd" clip-rule="evenodd" d="M70 10C103.137 10 130 36.8629 130 70C130 103.137 103.137 130 70 130C36.8629 130 10 103.137 10 70C10 36.8629 36.8629 10 70 10ZM104.324 62.1823C106.568 64.0161 108 66.8053 108 69.929C108 72.7264 106.851 75.2555 105 77.0705C104.976 77.0945 104.953 77.1184 104.929 77.1422L78.1421 103.929C74.2369 107.834 67.9053 107.834 64 103.929C60.0948 100.024 60.0948 93.6921 64 89.7868L73.8579 79.929L38 79.929C32.4772 79.929 28 75.4518 28 69.929C28 64.4061 32.4772 59.929 38 59.929L73.7866 59.929L64 50.1424C60.0948 46.2372 60.0948 39.9055 64 36.0003C67.9052 32.095 74.2369 32.095 78.1421 36.0003L104.324 62.1823Z" fill="#EEEEEE"/>
</svg>
