<svg width="140" height="140" viewBox="0 0 140 140" fill="none" xmlns="http://www.w3.org/2000/svg">
<path fill-rule="evenodd" clip-rule="evenodd" d="M70 20C42.3858 20 20 42.3858 20 70C20 97.6142 42.3858 120 70 120C97.6142 120 120 97.6142 120 70C120 42.3858 97.6142 20 70 20ZM70 84C64.4771 84 60 88.4772 60 94C60 99.5229 64.4771 104 70 104C75.5228 104 80 99.5229 80 94C80 88.4772 75.5228 84 70 84ZM60 66C60 71.5229 64.4771 76 70 76C75.5228 76 80 71.5229 80 66L80 46C80 40.4772 75.5228 36 70 36C64.4771 36 60 40.4772 60 46L60 66Z" fill="#EEEEEE"/>
</svg>
