<svg width="140" height="140" viewBox="0 0 140 140" fill="none" xmlns="http://www.w3.org/2000/svg">
<path d="M59 85C73.9117 85 86 72.9117 86 58C86 43.0883 73.9117 31 59 31C44.0883 31 32 43.0883 32 58C32 72.9117 44.0883 85 59 85Z" fill="#B9B8C0"/>
<path d="M91 82C102.598 82 112 72.598 112 61C112 49.402 102.598 40 91 40C79.402 40 70 49.402 70 61C70 72.598 79.402 82 91 82Z" fill="#B9B8C0"/>
<path d="M40 108C53.8071 108 65 96.8071 65 83C65 69.1929 53.8071 58 40 58C26.1929 58 15 69.1929 15 83C15 96.8071 26.1929 108 40 108Z" fill="#B9B8C0"/>
<path d="M103 108C115.15 108 125 98.1503 125 86C125 73.8497 115.15 64 103 64C90.8497 64 81 73.8497 81 86C81 98.1503 90.8497 108 103 108Z" fill="#B9B8C0"/>
<rect x="39" y="73" width="65" height="35" fill="#B9B8C0"/>
<path d="M92.3764 75.9203C90.4237 73.9677 87.2579 73.9677 85.3053 75.9203C83.3527 77.8729 83.3527 81.0388 85.3053 82.9914C87.2579 84.944 90.4237 84.944 92.3764 82.9914C94.329 81.0388 94.329 77.8729 92.3764 75.9203Z" fill="#EEEEEE"/>
<path d="M83.184 66.7279C81.2313 64.7753 78.0655 64.7753 76.1129 66.7279C74.1603 68.6806 74.1603 71.8464 76.1129 73.799C78.0655 75.7516 81.2313 75.7516 83.184 73.799C85.1366 71.8464 85.1366 68.6806 83.184 66.7279Z" fill="#EEEEEE"/>
<path d="M73.9916 57.5355C72.039 55.5829 68.8731 55.5829 66.9205 57.5355C64.9679 59.4882 64.9679 62.654 66.9205 64.6066C68.8731 66.5592 72.039 66.5592 73.9916 64.6066C75.9442 62.654 75.9442 59.4882 73.9916 57.5355Z" fill="#EEEEEE"/>
<path d="M64.7992 66.7279C62.8466 64.7753 59.6808 64.7753 57.7281 66.7279C55.7755 68.6806 55.7755 71.8464 57.7281 73.799C59.6808 75.7516 62.8466 75.7516 64.7992 73.799C66.7518 71.8464 66.7518 68.6806 64.7992 66.7279Z" fill="#EEEEEE"/>
<path d="M55.6068 75.9203C53.6542 73.9677 50.4884 73.9677 48.5358 75.9203C46.5831 77.8729 46.5831 81.0388 48.5358 82.9914C50.4884 84.944 53.6542 84.944 55.6068 82.9914C57.5594 81.0388 57.5594 77.8729 55.6068 75.9203Z" fill="#EEEEEE"/>
</svg>
