<svg width="140" height="140" viewBox="0 0 140 140" fill="none" xmlns="http://www.w3.org/2000/svg">
<path d="M31.8747 41.8321C41.1957 33.2286 53.9998 26 69.9901 26C85.9804 26 98.7845 33.2286 108.106 41.8321C117.367 50.3768 123.562 60.5714 126.51 67.5839C127.163 69.1357 127.163 70.8643 126.51 72.4161C123.562 79.4286 117.367 89.6429 108.106 98.1679C98.7845 106.771 85.9804 114 69.9901 114C53.9998 114 41.1957 106.771 31.8747 98.1679C22.613 89.6429 16.4187 79.4286 13.4898 72.4161C12.8367 70.8643 12.8367 69.1357 13.4898 67.5839C16.4187 60.5714 22.613 50.3571 31.8747 41.8321ZM69.9901 98.2857C85.7231 98.2857 98.4876 85.6161 98.4876 70C98.4876 54.3839 85.7231 41.7143 69.9901 41.7143C54.2571 41.7143 41.4926 54.3839 41.4926 70C41.4926 85.6161 54.2571 98.2857 69.9901 98.2857Z" fill="#B9B8C0"/>
<path fill-rule="evenodd" clip-rule="evenodd" d="M72.3872 51.1428C72.3872 62.8592 62.8892 72.3571 51.1729 72.3571C50.4162 72.3571 49.6688 72.3175 48.9326 72.2403C50.0518 82.9035 59.0704 91.2143 70.03 91.2143C81.7463 91.2143 91.2443 81.7163 91.2443 70C91.2443 59.0403 82.9335 50.0217 72.2703 48.9026C72.3475 49.6388 72.3872 50.3862 72.3872 51.1428Z" fill="#EEEEEE"/>
</svg>
