<svg width="140" height="140" viewBox="0 0 140 140" fill="none" xmlns="http://www.w3.org/2000/svg">
<path d="M43 117C54.0457 117 63 108.046 63 97C63 85.9543 54.0457 77 43 77C31.9543 77 23 85.9543 23 97C23 108.046 31.9543 117 43 117Z" fill="#B8B8C1"/>
<path d="M96 64C107.046 64 116 55.0457 116 44C116 32.9543 107.046 24 96 24C84.9543 24 76 32.9543 76 44C76 55.0457 84.9543 64 96 64Z" fill="#B8B8C1"/>
<path d="M43 64C54.0457 64 63 55.0457 63 44C63 32.9543 54.0457 24 43 24C31.9543 24 23 32.9543 23 44C23 55.0457 31.9543 64 43 64Z" fill="#1C1B20"/>
<path d="M96 117C107.046 117 116 108.046 116 97C116 85.9543 107.046 77 96 77C84.9543 77 76 85.9543 76 97C76 108.046 84.9543 117 96 117Z" fill="#1C1B20"/>
</svg>
