<svg width="140" height="140" viewBox="0 0 140 140" fill="none" xmlns="http://www.w3.org/2000/svg">
<path d="M65.1859 18.0766C68.2383 16.648 71.7619 16.648 74.8143 18.0766L119.597 38.9867C121.338 39.7941 122.445 41.5539 122.445 43.5C122.445 45.4461 121.338 47.2059 119.597 48.0133L74.8143 68.9234C71.7619 70.352 68.2383 70.352 65.1859 68.9234L20.4032 48.0133C18.6619 47.1852 17.5557 45.4254 17.5557 43.5C17.5557 41.5746 18.6619 39.7941 20.4032 38.9867L65.1859 18.0766ZM108.698 86.8938L119.597 91.9867C121.338 92.7941 122.445 94.5539 122.445 96.5C122.445 98.4461 121.338 100.206 119.597 101.013L74.8143 121.923C71.7619 123.352 68.2383 123.352 65.1859 121.923L20.4032 101.013C18.6619 100.185 17.5557 98.4254 17.5557 96.5C17.5557 94.5746 18.6619 92.7941 20.4032 91.9867L31.3018 86.8938L62.4407 101.427C67.2345 103.663 72.7657 103.663 77.5595 101.427L108.698 86.8938Z" fill="#1C1B20"/>
<path d="M77.5595 74.9273L108.698 60.3938L119.597 65.4867C121.338 66.2941 122.445 68.0539 122.445 70C122.445 71.9461 121.338 73.7059 119.597 74.5133L74.8143 95.4234C71.7619 96.852 68.2383 96.852 65.1859 95.4234L20.4032 74.5133C18.6619 73.6852 17.5557 71.9254 17.5557 70C17.5557 68.0746 18.6619 66.2941 20.4032 65.4867L31.3018 60.3938L62.4407 74.9273C67.2345 77.1633 72.7657 77.1633 77.5595 74.9273Z" fill="#B8B8C1"/>
</svg>
