<svg width="140" height="140" viewBox="0 0 140 140" fill="none" xmlns="http://www.w3.org/2000/svg">
<rect x="46" y="90" width="78" height="20" rx="10" fill="#B8B8C1"/>
<rect x="46" y="60" width="78" height="20" rx="10" fill="#B8B8C1"/>
<rect x="46" y="30" width="78" height="20" rx="10" fill="#B8B8C1"/>
<path d="M26 110C31.5228 110 36 105.523 36 100C36 94.4772 31.5228 90 26 90C20.4772 90 16 94.4772 16 100C16 105.523 20.4772 110 26 110Z" fill="#1C1B20"/>
<path d="M26 80C31.5228 80 36 75.5228 36 70C36 64.4772 31.5228 60 26 60C20.4772 60 16 64.4772 16 70C16 75.5228 20.4772 80 26 80Z" fill="#1C1B20"/>
<path d="M26 50C31.5228 50 36 45.5228 36 40C36 34.4772 31.5228 30 26 30C20.4772 30 16 34.4772 16 40C16 45.5228 20.4772 50 26 50Z" fill="#1C1B20"/>
</svg>
