<svg width="140" height="140" viewBox="0 0 140 140" fill="none" xmlns="http://www.w3.org/2000/svg">
<rect x="60" y="5" width="20" height="35" rx="10" fill="#EEEEEE"/>
<rect x="60" y="100" width="20" height="35" rx="10" fill="#B9B8C0"/>
<rect x="108.891" y="16.967" width="20" height="35" rx="10" transform="rotate(45 108.891 16.967)" fill="#B9B8C0"/>
<rect x="41.7148" y="84.1422" width="20" height="35" rx="10" transform="rotate(45 41.7148 84.1422)" fill="#B9B8C0"/>
<rect x="135" y="60.0002" width="20" height="35" rx="10" transform="rotate(90 135 60.0002)" fill="#B9B8C0"/>
<rect x="40" y="59.9998" width="20" height="35" rx="10" transform="rotate(90 40 59.9998)" fill="#EEEEEE"/>
<rect x="123.033" y="108.891" width="20" height="35" rx="10" transform="rotate(135 123.033 108.891)" fill="#B9B8C0"/>
<rect x="55.8574" y="41.7156" width="20" height="35" rx="10" transform="rotate(135 55.8574 41.7156)" fill="#EEEEEE"/>
</svg>
