<svg width="140" height="140" viewBox="0 0 140 140" fill="none" xmlns="http://www.w3.org/2000/svg">
<path fill-rule="evenodd" clip-rule="evenodd" d="M117 70C117 81.0457 108.046 90 97 90C85.9543 90 77 81.0457 77 70C77 58.9543 85.9543 50 97 50C108.046 50 117 58.9543 117 70ZM107 70C107 75.5229 102.523 80 97 80C91.4771 80 87 75.5229 87 70C87 64.4771 91.4771 60 97 60C102.523 60 107 64.4771 107 70Z" fill="#1C1B20"/>
<path fill-rule="evenodd" clip-rule="evenodd" d="M74 110C74 121.046 65.0457 130 54 130C42.9543 130 34 121.046 34 110C34 98.9543 42.9543 90 54 90C65.0457 90 74 98.9543 74 110ZM64 110C64 115.523 59.5229 120 54 120C48.4772 120 44 115.523 44 110C44 104.477 48.4772 100 54 100C59.5229 100 64 104.477 64 110Z" fill="#1C1B20"/>
<path fill-rule="evenodd" clip-rule="evenodd" d="M61 30C61 41.0457 52.0457 50 41 50C29.9543 50 21 41.0457 21 30C21 18.9543 29.9543 10 41 10C52.0457 10 61 18.9543 61 30ZM51 30C51 35.5229 46.5229 40 41 40C35.4772 40 31 35.5229 31 30C31 24.4772 35.4772 20 41 20C46.5229 20 51 24.4772 51 30Z" fill="#1C1B20"/>
<path fill-rule="evenodd" clip-rule="evenodd" d="M71.3244 120C73.0261 117.058 74 113.643 74 110C74 106.357 73.0261 102.942 71.3244 100L120 100C125.523 100 130 104.477 130 110C130 115.523 125.523 120 120 120H71.3244ZM36.6756 120H20C14.4772 120 10 115.523 10 110C10 104.477 14.4772 100 20 100L36.6756 100C34.9739 102.942 34 106.357 34 110C34 113.643 34.9739 117.058 36.6756 120Z" fill="#B8B8C1"/>
<path fill-rule="evenodd" clip-rule="evenodd" d="M114.324 80C116.026 77.0583 117 73.6429 117 70C117 66.3571 116.026 62.9417 114.324 60H120C125.523 60 130 64.4772 130 70C130 75.5228 125.523 80 120 80H114.324ZM79.6756 80H20C14.4772 80 10 75.5228 10 70C10 64.4772 14.4772 60 20 60H79.6756C77.9739 62.9417 77 66.3571 77 70C77 73.6429 77.9739 77.0583 79.6756 80Z" fill="#B8B8C1"/>
<path fill-rule="evenodd" clip-rule="evenodd" d="M58.3244 40C60.0261 37.0583 61 33.6429 61 30C61 26.3571 60.0261 22.9417 58.3244 20H120C125.523 20 130 24.4772 130 30C130 35.5228 125.523 40 120 40H58.3244ZM23.6756 40H20C14.4772 40 10 35.5228 10 30C10 24.4772 14.4772 20 20 20H23.6756C21.9739 22.9417 21 26.3571 21 30C21 33.6429 21.9739 37.0583 23.6756 40Z" fill="#B8B8C1"/>
</svg>
