<svg width="140" height="140" viewBox="0 0 140 140" fill="none" xmlns="http://www.w3.org/2000/svg">
<g clip-path="url(#clip0_62_677)">
<path d="M59.2633 31.4617C58.7148 30.2594 57.5125 29.5 56.2047 29.5C54.8969 29.5 53.6945 30.2594 53.1461 31.4617L42.0297 55.5297L17.9617 66.625C16.7594 67.1734 16 68.3758 16 69.7047C16 71.0336 16.7594 72.2148 17.9617 72.7633L42.0297 83.8797L53.125 107.927C53.6734 109.129 54.8758 109.888 56.1836 109.888C57.4914 109.888 58.6938 109.129 59.2422 107.927L70.3586 83.8586L94.4266 72.7422C95.6289 72.1938 96.3883 70.9914 96.3883 69.6836C96.3883 68.3758 95.6289 67.1734 94.4266 66.625L70.3797 55.5297L59.2633 31.4617Z" fill="#1C1B20"/>
<path d="M85.082 33.9719L97 29.5L101.472 17.582C101.83 16.6328 102.737 16 103.75 16C104.763 16 105.67 16.6328 106.028 17.582L110.5 29.5L122.418 33.9719C123.367 34.3305 124 35.2375 124 36.25C124 37.2625 123.367 38.1695 122.418 38.5281L110.5 43L106.028 54.918C105.67 55.8672 104.763 56.5 103.75 56.5C102.737 56.5 101.83 55.8672 101.472 54.918L97 43L85.082 38.5281C84.1328 38.1695 83.5 37.2625 83.5 36.25C83.5 35.2375 84.1328 34.3305 85.082 33.9719ZM85.082 101.472L97 97L101.472 85.082C101.83 84.1328 102.737 83.5 103.75 83.5C104.763 83.5 105.67 84.1328 106.028 85.082L110.5 97L122.418 101.472C123.367 101.83 124 102.737 124 103.75C124 104.763 123.367 105.67 122.418 106.028L110.5 110.5L106.028 122.418C105.67 123.367 104.763 124 103.75 124C102.737 124 101.83 123.367 101.472 122.418L97 110.5L85.082 106.028C84.1328 105.67 83.5 104.763 83.5 103.75C83.5 102.737 84.1328 101.83 85.082 101.472Z" fill="#B8B8C1"/>
</g>
<defs>
<clipPath id="clip0_62_677">
<rect width="108" height="108" fill="white" transform="translate(16 16)"/>
</clipPath>
</defs>
</svg>
