<svg width="140" height="140" viewBox="0 0 140 140" fill="none" xmlns="http://www.w3.org/2000/svg">
<path d="M20 54.3333C20 50.8302 22.793 48 26.25 48H38.75C42.207 48 45 50.8302 45 54.3333V98.6667C45 102.17 42.207 105 38.75 105H26.25C22.793 105 20 102.17 20 98.6667V54.3333Z" fill="#EEEEEE"/>
<path d="M88.4599 111.718C89.4793 116.825 86.1665 121.794 81.0699 122.815C75.9733 123.837 71.0139 120.517 69.9946 115.411L69.5438 113.172C68.25 106.651 64.6824 100.798 59.5074 96.6338L58.0568 95.475C53.5875 91.9003 51 86.4793 51 80.7441V58.9032C51 52.5984 54.1364 46.7061 59.3702 43.21L66.917 38.1622C70.0142 36.0999 73.6406 35 77.3651 35H96.4773C101.672 35 105.886 39.2228 105.886 44.4277C105.886 49.6326 105.808 45.8026 105.671 46.4704C109.434 47.7078 112.159 51.2432 112.159 55.4267C112.159 59.6103 111.669 58.8836 110.807 60.3174C115.158 61.1423 118.432 64.9723 118.432 69.5683C118.432 74.1644 117.06 75.1857 114.923 76.9141C117.942 78.4854 120 81.6476 120 85.2812C120 90.4861 115.786 94.709 110.591 94.709H82.3636C85.0491 99.2461 86.9702 104.235 88.0091 109.479L88.4599 111.718Z" fill="#B9B8C0"/>
</svg>
