<svg width="140" height="140" viewBox="0 0 140 140" fill="none" xmlns="http://www.w3.org/2000/svg">
<path d="M88.4599 28.2818C89.4793 23.1752 86.1665 18.206 81.0699 17.1846C75.9733 16.1633 71.0139 19.4826 69.9946 24.5893L69.5438 26.8284C68.25 33.3493 64.6824 39.2023 59.5074 43.3662L58.0568 44.525C53.5875 48.0997 51 53.5207 51 59.2559V81.0968C51 87.4016 54.1364 93.2939 59.3702 96.79L66.917 101.838C70.0142 103.9 73.6406 105 77.3651 105H96.4773C101.672 105 105.886 100.777 105.886 95.5723C105.886 90.3674 105.808 94.1974 105.671 93.5296C109.434 92.2922 112.159 88.7568 112.159 84.5733C112.159 80.3897 111.669 81.1164 110.807 79.6826C115.158 78.8577 118.432 75.0277 118.432 70.4317C118.432 65.8356 117.06 64.8143 114.923 63.0859C117.942 61.5146 120 58.3524 120 54.7188C120 49.5139 115.786 45.291 110.591 45.291H82.3636C85.0491 40.7539 86.9702 35.7651 88.0091 30.5209L88.4599 28.2818Z" fill="#B9B8C0"/>
<path d="M20 54.3333C20 50.8302 22.793 48 26.25 48H38.75C42.207 48 45 50.8302 45 54.3333V98.6667C45 102.17 42.207 105 38.75 105H26.25C22.793 105 20 102.17 20 98.6667V54.3333Z" fill="#EEEEEE"/>
</svg>
