<svg width="140" height="140" viewBox="0 0 140 140" fill="none" xmlns="http://www.w3.org/2000/svg">
<path d="M70.0004 87.9091C78.5358 87.9091 85.455 80.9899 85.455 72.4545C85.455 63.9192 78.5358 57 70.0004 57C61.4651 57 54.5459 63.9192 54.5459 72.4545C54.5459 80.9899 61.4651 87.9091 70.0004 87.9091Z" fill="#1C1B20"/>
<path fill-rule="evenodd" clip-rule="evenodd" d="M36 125.618H104C104 106.84 88.7777 91.6182 70 91.6182C51.2223 91.6182 36 106.84 36 125.618Z" fill="#1C1B20"/>
<path fill-rule="evenodd" clip-rule="evenodd" d="M56.4545 34.4545C56.4545 42.9899 49.5353 49.9091 41 49.9091C32.4647 49.9091 25.5455 42.9899 25.5455 34.4545C25.5455 25.9192 32.4647 19 41 19C49.5353 19 56.4545 25.9192 56.4545 34.4545ZM53.4909 55.986C49.6241 54.4578 45.4101 53.6182 41 53.6182C22.2223 53.6182 7 68.8405 7 87.6182H53.1158C49.3199 83.5166 47 78.0292 47 72C47 65.7747 49.4733 60.127 53.4909 55.986ZM86.8842 87.6182H132C132 68.8405 116.778 53.6182 98 53.6182C93.8645 53.6182 89.9014 54.3565 86.2354 55.7086C90.4141 59.8729 93 65.6345 93 72C93 78.0292 90.6801 83.5166 86.8842 87.6182ZM98 49.9091C106.535 49.9091 113.455 42.9899 113.455 34.4545C113.455 25.9192 106.535 19 98 19C89.4647 19 82.5455 25.9192 82.5455 34.4545C82.5455 42.9899 89.4647 49.9091 98 49.9091Z" fill="#B8B8C1"/>
</svg>
