<?xml version="1.0" encoding="UTF-8"?>
<svg id="Layer_1" xmlns="http://www.w3.org/2000/svg" viewBox="0 0 590.56 170.85">
  <defs>
    <style>
      .cls-1 {
        fill: none;
      }

      .cls-2 {
        fill: #40404c;
      }

      .cls-3 {
        fill: #1c1b20;
      }

      .cls-4 {
        fill: #777d8d;
      }

      .cls-5 {
        fill: #b9b8c0;
      }
    </style>
  </defs>
  <g>
    <path class="cls-3" d="M230.64,37.27c16.53,0,27.07,10.93,27.07,25.77,0,30.98-43.21,38.26-44.9,61.69h46.85v7.55h-55.7v-3.25c0-34.36,45.03-37.48,45.03-65.59,0-11.84-7.42-18.48-18.74-18.48-13.28,0-20.43,8.2-20.04,20.17h-8.33c-.39-16.53,11.45-27.85,28.76-27.85Z"/>
    <path class="cls-3" d="M313.77,108.33h-45.81v-7.94l40.48-61.95h13.54v62.6h14.58v7.29h-14.58v23.95h-8.2v-23.95ZM313.77,101.04v-55.18h-1.04l-35.14,54.01v1.17h36.18Z"/>
    <path class="cls-3" d="M349.89,108.46c0-10.54,5.86-19.65,17.05-22.78v-.78c-10.15-3.38-15.62-12.23-15.62-22.39,0-16.66,12.63-25.12,30.07-25.12s30.19,9.24,30.19,25.64c0,10.41-6.12,19.26-15.36,21.86v.78c10.93,2.08,16.66,11.19,16.66,22.52,0,16.27-12.62,25.38-31.5,25.38-20.04,0-31.5-10.02-31.5-25.12ZM403.64,109.63v-4.3c0-11.45-8.85-16.4-22.25-16.4s-22.13,4.95-22.13,16.4v4.3c0,10.54,8.85,16.4,22.13,16.4,14.19,0,22.25-6.51,22.25-16.4ZM402.73,65.64v-4.3c0-11.45-8.46-16.4-21.34-16.4s-21.21,4.95-21.21,16.4v4.3c0,12.23,10.8,16.4,21.21,16.4s21.34-4.16,21.34-16.4Z"/>
    <circle class="cls-3" cx="428.46" cy="126.08" r="6.02"/>
    <path class="cls-3" d="M481.25,37.4h12.49l35.53,94.88h-8.72l-9.11-24.47h-47.89l-9.11,24.47h-8.72l35.53-94.88ZM508.71,100.39l-13.14-35.14-7.55-20.3h-1.04l-7.55,20.17-13.15,35.27h42.43Z"/>
    <path class="cls-3" d="M544.91,132.28V37.4h8.46v94.88h-8.46Z"/>
  </g>
  <g>
    <circle class="cls-5" cx="41.58" cy="122.44" r="10"/>
    <circle class="cls-5" cx="66.58" cy="122.44" r="10"/>
    <circle class="cls-4" cx="91.58" cy="122.44" r="10"/>
    <circle class="cls-4" cx="116.58" cy="122.44" r="10"/>
    <circle class="cls-2" cx="141.58" cy="122.44" r="10"/>
    <circle class="cls-2" cx="166.58" cy="122.44" r="10"/>
    <circle class="cls-4" cx="91.58" cy="97.44" r="10"/>
    <circle class="cls-4" cx="116.58" cy="97.44" r="10"/>
    <circle class="cls-2" cx="141.58" cy="97.44" r="10"/>
    <circle class="cls-2" cx="166.58" cy="97.44" r="10"/>
    <circle class="cls-2" cx="141.58" cy="72.44" r="10"/>
    <circle class="cls-2" cx="166.58" cy="72.44" r="10"/>
    <circle class="cls-2" cx="141.58" cy="47.44" r="10"/>
    <circle class="cls-2" cx="166.58" cy="47.44" r="10"/>
  </g>
  <rect class="cls-1" width="590.56" height="170.85"/>
</svg>